<?xml version="1.0" encoding="UTF-8" standalone="no"?>
<!-- Generator: Adobe Illustrator 19.0.0, SVG Export Plug-In . SVG Version: 6.00 Build 0)  -->

<svg
   version="1.1"
   id="Layer_1"
   x="0px"
   y="0px"
   viewBox="222 -264.9 700 700"
   style="enable-background:new 222 -264.9 700 700;"
   xml:space="preserve"
   sodipodi:docname="icon.svg"
   inkscape:version="1.2.2 (b0a8486, 2022-12-01)"
   inkscape:export-filename="icon.svg"
   inkscape:export-xdpi="32.091427"
   inkscape:export-ydpi="32.091427"
   xmlns:inkscape="http://www.inkscape.org/namespaces/inkscape"
   xmlns:sodipodi="http://sodipodi.sourceforge.net/DTD/sodipodi-0.dtd"
   xmlns="http://www.w3.org/2000/svg"
   xmlns:svg="http://www.w3.org/2000/svg"><defs
   id="defs14" /><sodipodi:namedview
   id="namedview12"
   pagecolor="#ffffff"
   bordercolor="#999999"
   borderopacity="1"
   inkscape:showpageshadow="0"
   inkscape:pageopacity="0"
   inkscape:pagecheckerboard="0"
   inkscape:deskcolor="#d1d1d1"
   showgrid="false"
   inkscape:zoom="0.41655959"
   inkscape:cx="-399.70272"
   inkscape:cy="255.6657"
   inkscape:window-width="1716"
   inkscape:window-height="801"
   inkscape:window-x="0"
   inkscape:window-y="25"
   inkscape:window-maximized="0"
   inkscape:current-layer="Layer_1" />
<style
   type="text/css"
   id="style2">
	.st0{fill:#0091EA;}
	.st1{fill:#FFFFFF;}
</style>
<g
   id="XMLID_46_">
	<g
   id="XMLID_45_">
		<g
   id="XMLID_58_">
			<circle
   id="XMLID_62_"
   class="st0"
   cx="572"
   cy="85.1"
   r="334.7" />
			<g
   id="XMLID_59_">
				<path
   id="XMLID_61_"
   class="st1"
   d="M777.3,45.5c-2.8-63.4-54.9-113.7-118.9-113.7c-35.5,0-67.5,15.7-89.3,40.3      c-21.8-24.6-53.8-40.3-89.3-40.3c-62.7,0-114.1,48.3-118.7,110.2c-0.2,1.3-0.2,3-0.2,4.6v134.3c0,16.5,13.3,29.8,29.8,29.8h0.7      c16.5,0,29.8-13.3,29.8-29.8v-130h0.2c0-32.7,26.6-59.2,59.2-59.2c32.7,0,59.2,26.6,59.2,59.2h0.2v109.7      c0,16.5,13.3,29.8,29.8,29.8h0.7c16.5,0,29.8-13.3,29.8-29.8v-110c0.2-32.7,26.6-58.8,59.2-58.8S719,18.5,719,51.1h0.2v130.2      c0,16.3,13.3,29.4,29.4,29.4h0.7c16.3,0,29.4-13.3,29.4-29.4V48.5C777.3,47,777.3,46.3,777.3,45.5z" />
				<path
   id="XMLID_60_"
   class="st1"
   d="M664.8,222.3c-1.3-2.2-5.7,2.2-5.7,2.2c-16.5,17.9-50.7,29.4-86.2,29.4      s-69.5-11.5-86.2-29.4c0,0-4.4-4.6-5.7-2.2c-1.7,2.6,0.9,6.8,0.9,6.8c21.1,30.5,53.3,44.2,91,44.2c37.7,0,69.9-13.7,91-44.2      C664.1,229,666.5,224.9,664.8,222.3z" />
			</g>
		</g>
	</g>
</g>
<path
   style="fill:#282828;fill-opacity:1;fill-rule:evenodd;stroke:#ffffff;stroke-width:19.7548;paint-order:markers fill stroke"
   d="M 322.66198,683.07949 C 232.19427,675.67539 148.03471,631.03334 90.120649,559.72902 40.021999,498.0471 13.767578,419.8124 16.273085,339.67308 18.609418,264.94481 44.002604,197.24006 92.011515,137.73496 100.56765,127.12999 127.12999,100.56765 137.73496,92.011515 187.24514,52.066537 240.25354,28.738037 303.45591,19.07928 c 13.16614,-2.012083 20.8401,-2.447927 44.44834,-2.524446 31.08219,-0.100744 42.07109,0.868209 67.49562,5.951473 30.81517,6.161047 54.77292,14.40278 83.50754,28.727531 67.32007,33.560326 120.1658,87.383572 152.87261,155.700352 45.21292,94.43908 42.78337,206.21262 -6.50662,299.34399 -30.97166,58.51961 -80.47561,108.02356 -138.99522,138.99522 -55.92568,29.59879 -120.76831,42.94973 -183.6162,37.80609 z m 51.71263,-146.45442 c 12.84765,-2.23247 25.86596,-6.79784 36.12953,-12.6702 14.94239,-8.54938 34.16408,-28.83063 33.24938,-35.08218 -0.59467,-4.06428 -2.55524,-3.66236 -8.68315,1.78011 -12.32168,10.94339 -26.65017,18.03958 -46.15931,22.86039 -43.8298,10.8306 -93.7076,1.94444 -120.16035,-21.40758 -4.0624,-3.58621 -7.91649,-6.34668 -8.56466,-6.13439 -2.4449,0.80082 -1.89995,6.43268 1.05442,10.89701 3.81904,5.77098 16.15514,18.08259 22.46063,22.41605 11.96395,8.22226 27.84749,14.63054 43.13778,17.40414 11.13851,2.02047 35.73213,1.9877 47.53573,-0.0633 z M 181.63455,473.48063 c 6.62981,-2.99758 11.796,-8.0912 14.93979,-14.72992 l 2.5986,-5.48745 0.0191,-66.39813 c 0.0198,-68.95609 0.53937,-79.84425 4.32411,-90.61249 7.5755,-21.55365 27.75674,-36.88686 50.77424,-38.57702 27.72145,-2.03556 51.81637,14.80494 60.79039,42.48782 1.75387,5.41033 2.02076,12.69314 2.57403,70.23935 0.60749,63.18713 0.65495,64.27354 2.99856,68.65118 5.88544,10.99335 15.09432,16.39992 27.79967,16.32127 13.23073,-0.0819 22.25606,-5.91606 27.88519,-18.02558 2.22621,-4.78905 2.3124,-6.90088 2.84452,-69.6906 0.53767,-63.44504 0.59767,-64.88143 2.97299,-71.17045 6.23037,-16.49587 18.74087,-29.13567 35.15341,-35.51675 6.3233,-2.45845 9.20297,-2.89771 19.49181,-2.97319 9.91392,-0.0728 13.38171,0.36387 19.39548,2.44198 14.20663,4.90921 29.0463,18.16611 34.59087,30.90144 5.38092,12.35949 5.17296,9.18589 5.79215,88.38936 l 0.58344,74.6293 3.29247,5.99717 c 3.66421,6.6743 10.55092,12.53069 16.76444,14.25634 14.85243,4.12489 29.87833,-1.89865 36.83435,-14.76606 2.36529,-4.37535 2.37318,-4.63458 2.37318,-77.92177 0,-66.71398 -0.18858,-74.60008 -2.03388,-85.05323 -6.36907,-36.07928 -26.52304,-65.86367 -56.74295,-83.85715 C 452.1327,185.91394 392.4885,192.42708 354.80762,228.6145 l -7.36404,7.07217 -7.45207,-6.83234 c -9.21977,-8.45303 -22.60065,-17.44759 -32.71354,-21.98987 -70.64148,-31.72915 -152.37683,10.60635 -166.88623,86.4401 -1.25446,6.5565 -1.55715,22.98635 -1.54852,84.05409 l 0.011,75.90461 2.59861,5.48745 c 5.25475,11.0964 14.78648,16.96289 27.56092,16.96289 5.37611,0 9.16506,-0.67036 12.62113,-2.23297 z"
   id="path4464"
   transform="translate(222,-264.9)"
   inkscape:export-filename="path4464.svg"
   inkscape:export-xdpi="32.665489"
   inkscape:export-ydpi="32.665489" /></svg>
